<mxfile host="app.diagrams.net" agent="Mozilla/5.0 (Windows NT 10.0; Win64; x64) AppleWebKit/537.36 (KHTML, like Gecko) Chrome/135.0.0.0 Safari/537.36 Edg/135.0.0.0" version="26.2.4">
  <diagram name="第 1 页" id="oUEbUeRSCcuc7dKV9l3M">
    <mxGraphModel dx="1207" dy="807" grid="1" gridSize="10" guides="1" tooltips="1" connect="1" arrows="1" fold="1" page="1" pageScale="1" pageWidth="827" pageHeight="1169" math="0" shadow="0">
      <root>
        <mxCell id="0" />
        <mxCell id="1" parent="0" />
        <mxCell id="fZkCcuMIKWEt_vhyBYZx-3" value="" style="edgeStyle=orthogonalEdgeStyle;rounded=0;orthogonalLoop=1;jettySize=auto;html=1;" edge="1" parent="1" source="fZkCcuMIKWEt_vhyBYZx-1" target="fZkCcuMIKWEt_vhyBYZx-2">
          <mxGeometry relative="1" as="geometry" />
        </mxCell>
        <mxCell id="fZkCcuMIKWEt_vhyBYZx-1" value="开始" style="strokeWidth=2;html=1;shape=mxgraph.flowchart.start_1;whiteSpace=wrap;fillColor=#ffe6cc;strokeColor=#d79b00;" vertex="1" parent="1">
          <mxGeometry x="350" y="90" width="100" height="60" as="geometry" />
        </mxCell>
        <mxCell id="fZkCcuMIKWEt_vhyBYZx-5" value="" style="edgeStyle=orthogonalEdgeStyle;rounded=0;orthogonalLoop=1;jettySize=auto;html=1;" edge="1" parent="1" source="fZkCcuMIKWEt_vhyBYZx-2" target="fZkCcuMIKWEt_vhyBYZx-4">
          <mxGeometry relative="1" as="geometry" />
        </mxCell>
        <mxCell id="fZkCcuMIKWEt_vhyBYZx-2" value="右键对应图像" style="whiteSpace=wrap;html=1;strokeWidth=2;fillColor=#f5f5f5;fontColor=#333333;strokeColor=#666666;" vertex="1" parent="1">
          <mxGeometry x="340" y="190" width="120" height="60" as="geometry" />
        </mxCell>
        <mxCell id="fZkCcuMIKWEt_vhyBYZx-9" value="否" style="edgeStyle=orthogonalEdgeStyle;rounded=0;orthogonalLoop=1;jettySize=auto;html=1;exitX=1;exitY=0.5;exitDx=0;exitDy=0;" edge="1" parent="1" source="fZkCcuMIKWEt_vhyBYZx-4" target="fZkCcuMIKWEt_vhyBYZx-8">
          <mxGeometry relative="1" as="geometry">
            <mxPoint as="offset" />
          </mxGeometry>
        </mxCell>
        <mxCell id="fZkCcuMIKWEt_vhyBYZx-13" value="是" style="edgeStyle=orthogonalEdgeStyle;rounded=0;orthogonalLoop=1;jettySize=auto;html=1;exitX=0;exitY=0.5;exitDx=0;exitDy=0;" edge="1" parent="1" source="fZkCcuMIKWEt_vhyBYZx-4" target="fZkCcuMIKWEt_vhyBYZx-12">
          <mxGeometry relative="1" as="geometry" />
        </mxCell>
        <mxCell id="fZkCcuMIKWEt_vhyBYZx-4" value="是否点击空白" style="rhombus;whiteSpace=wrap;html=1;strokeWidth=2;fillColor=#dae8fc;strokeColor=#6c8ebf;" vertex="1" parent="1">
          <mxGeometry x="335" y="290" width="130" height="60" as="geometry" />
        </mxCell>
        <mxCell id="fZkCcuMIKWEt_vhyBYZx-11" value="是" style="edgeStyle=orthogonalEdgeStyle;rounded=0;orthogonalLoop=1;jettySize=auto;html=1;" edge="1" parent="1" source="fZkCcuMIKWEt_vhyBYZx-8" target="fZkCcuMIKWEt_vhyBYZx-10">
          <mxGeometry relative="1" as="geometry" />
        </mxCell>
        <mxCell id="fZkCcuMIKWEt_vhyBYZx-8" value="是否删除" style="rhombus;whiteSpace=wrap;html=1;strokeWidth=2;fillColor=#dae8fc;strokeColor=#6c8ebf;" vertex="1" parent="1">
          <mxGeometry x="420" y="370" width="130" height="60" as="geometry" />
        </mxCell>
        <mxCell id="fZkCcuMIKWEt_vhyBYZx-18" style="edgeStyle=orthogonalEdgeStyle;rounded=0;orthogonalLoop=1;jettySize=auto;html=1;exitX=0.5;exitY=1;exitDx=0;exitDy=0;" edge="1" parent="1" source="fZkCcuMIKWEt_vhyBYZx-10">
          <mxGeometry relative="1" as="geometry">
            <mxPoint x="400" y="590" as="targetPoint" />
          </mxGeometry>
        </mxCell>
        <mxCell id="fZkCcuMIKWEt_vhyBYZx-10" value="删除" style="whiteSpace=wrap;html=1;strokeWidth=2;fillColor=#f5f5f5;fontColor=#333333;strokeColor=#666666;" vertex="1" parent="1">
          <mxGeometry x="425" y="470" width="120" height="60" as="geometry" />
        </mxCell>
        <mxCell id="fZkCcuMIKWEt_vhyBYZx-17" style="edgeStyle=orthogonalEdgeStyle;rounded=0;orthogonalLoop=1;jettySize=auto;html=1;" edge="1" parent="1" source="fZkCcuMIKWEt_vhyBYZx-12" target="fZkCcuMIKWEt_vhyBYZx-16">
          <mxGeometry relative="1" as="geometry">
            <Array as="points">
              <mxPoint x="290" y="560" />
              <mxPoint x="400" y="560" />
            </Array>
          </mxGeometry>
        </mxCell>
        <mxCell id="fZkCcuMIKWEt_vhyBYZx-12" value="取消" style="whiteSpace=wrap;html=1;strokeWidth=2;fillColor=#f5f5f5;fontColor=#333333;strokeColor=#666666;" vertex="1" parent="1">
          <mxGeometry x="230" y="410" width="120" height="60" as="geometry" />
        </mxCell>
        <mxCell id="fZkCcuMIKWEt_vhyBYZx-16" value="结束" style="strokeWidth=2;html=1;shape=mxgraph.flowchart.start_1;whiteSpace=wrap;fillColor=#ffe6cc;strokeColor=#d79b00;" vertex="1" parent="1">
          <mxGeometry x="350" y="590" width="100" height="60" as="geometry" />
        </mxCell>
      </root>
    </mxGraphModel>
  </diagram>
</mxfile>
